<mxfile host="app.diagrams.net" modified="2024-03-29T05:38:27.610Z" agent="Mozilla/5.0 (Windows NT 10.0; Win64; x64) AppleWebKit/537.36 (KHTML, like Gecko) Chrome/122.0.0.0 Safari/537.36" version="24.0.2" etag="orou6hxMnLssXY5vpavd" type="github">
  <diagram name="Page-1" id="EUM1wT14FS8HixViUFQ5">
    <mxGraphModel>
      <root>
        <mxCell id="0" />
        <mxCell id="1" parent="0" />
      </root>
    </mxGraphModel>
  </diagram>
</mxfile>
